<?xml version="1.0" standalone="no"?><!DOCTYPE svg PUBLIC "-//W3C//DTD SVG 1.1//EN" "http://www.w3.org/Graphics/SVG/1.1/DTD/svg11.dtd">
<svg t="1513906847056" class="icon" style="" viewBox="0 0 1024 1024" version="1.1" xmlns="http://www.w3.org/2000/svg"
     p-id="5288"
     width="32" height="32"><defs><style type="text/css"></style></defs><path d="M951.996 938.903l-107.977-107.977c24.42-36.925 38.983-81.203 38.983-128.866 0-129.159-104.74-233.9-233.9-233.9-129.159 0-233.9 104.74-233.9 233.9 0 129.159 104.74 233.9 233.9 233.9 47.663 0 91.941-14.417 128.866-38.983l107.977 107.977c13.387 13.387 35.453 13.387 48.839 0l17.211-17.211c13.534-13.534 13.534-35.453 0-48.839v0 0zM775.321 762.081c-13.828 28.98-37.218 52.37-66.198 66.198-18.241 8.679-38.542 13.975-60.166 13.975-77.524 0-140.339-62.815-140.339-140.339 0-77.524 62.815-140.339 140.339-140.339 77.524 0 140.339 62.815 140.339 140.339 0 21.625-5.296 41.925-13.975 60.166v0 0zM343.71 745.751h-114.449c-19.565 0-35.6-16.035-35.6-35.6s16.035-35.6 35.6-35.6h112.537c2.942-33.54 11.328-65.462 24.126-95.030h-136.662c-19.565 0-35.6-16.035-35.6-35.6s16.035-35.6 35.6-35.6h180.206c34.864-42.807 81.055-76.053 134.014-95.030h-314.22c-19.565 0-35.6-16.035-35.6-35.6s16.035-35.6 35.6-35.6h548.854c19.565 0 35.6 16.035 35.6 35.6s-16.035 35.6-35.6 35.6h-26.921c96.061 34.571 169.908 115.774 194.327 216.247v-512.519c0-59.43-48.545-107.977-107.977-107.977h-667.717c-59.43-0.147-107.977 48.545-107.977 107.977v771.427c0 59.43 48.545 107.977 107.977 107.977h391.598c-113.861-33.246-200.506-130.778-217.718-250.67v0 0zM229.261 175.273h548.854c19.565 0 35.6 16.035 35.6 35.6s-16.035 35.6-35.6 35.6h-548.854c-19.565 0-35.6-16.035-35.6-35.6s16.035-35.6 35.6-35.6v0 0z" p-id="5289" fill="#ffffff"></path></svg>
