<?xml version="1.0" standalone="no"?><!DOCTYPE svg PUBLIC "-//W3C//DTD SVG 1.1//EN" "http://www.w3.org/Graphics/SVG/1.1/DTD/svg11.dtd">
<svg t="1513906692860" class="icon" style="" viewBox="0 0 1024 1024" version="1.1" xmlns="http://www.w3.org/2000/svg"
     p-id="2696"
     width="32" height="32"><defs><style type="text/css"></style></defs><path d="M753.97525 472.821828a259.561288 259.561288 0 1 0 259.561287 259.561288 260.451721 260.451721 0 0 0-259.561287-259.561288z m118.42762 336.583763h-89.043324v50.754694a21.815614 21.815614 0 0 1-21.815614 21.815614 22.260831 22.260831 0 0 1-21.815614-21.815614v-50.754694h-89.043324a21.815614 21.815614 0 0 1-21.815614-21.815615 22.260831 22.260831 0 0 1 21.815614-21.815614h89.043324v-44.521662h-89.043324a21.815614 21.815614 0 0 1 0-44.521661h52.980778l-56.987727-56.987727a21.815614 21.815614 0 0 1 31.165163-31.165163L760.653499 667.826706l80.584207-80.138991a21.815614 21.815614 0 1 1 31.165164 31.165164l-56.987727 56.987726h56.987727a21.815614 21.815614 0 0 1 0 44.521662h-89.043324v44.521662h89.043324a21.815614 21.815614 0 0 1 21.815614 21.815614 22.260831 22.260831 0 0 1-22.260831 21.815614z" p-id="2697" fill="#ffffff"></path><path d="M798.496911 0.001781H62.99906A52.090344 52.090344 0 0 0 10.463499 52.537342v918.927097A52.535561 52.535561 0 0 0 62.99906 1024h683.852724a306.309033 306.309033 0 0 1-303.637733-298.74035 284.048202 284.048202 0 0 1 303.637733-289.390801 321.001181 321.001181 0 0 1 101.064172 17.808665V35.173894A52.535561 52.535561 0 0 0 798.496911 0.001781zM428.967119 524.021739H146.699784a33.391246 33.391246 0 0 1-37.398196-34.281679c0-18.699098 10.685199-32.94603 36.952979-32.94603H428.967119c26.26778 0 39.179062 15.137365 39.179062 33.836463s-12.466065 33.391246-39.179062 33.391246z m267.12997-168.737098H147.590217c-28.048647 0-38.288629-15.137365-38.288629-33.391246s10.239982-32.500813 38.288629-32.500813h549.842522c28.048647 0 37.398196 14.692148 37.398196 32.94603s-8.904332 33.836463-37.398196 33.836462z m0-181.203163H148.035434c-28.048647 0-38.733846-13.356499-38.733846-30.719946s10.685199-32.055596 38.733846-32.055597h549.397305c28.048647 0 42.295579 14.246932 42.295579 31.61038s-13.801715 31.165163-42.295579 31.165163z" p-id="2698" fill="#ffffff"></path></svg>
