<?xml version="1.0" standalone="no"?><!DOCTYPE svg PUBLIC "-//W3C//DTD SVG 1.1//EN"
  "http://www.w3.org/Graphics/SVG/1.1/DTD/svg11.dtd">
<svg t="1513906557937" class="icon" style="" viewBox="0 0 1024 1024" version="1.1" xmlns="http://www.w3.org/2000/svg"
     p-id="1886"
     width="32" height="32">
  <defs>
    <style type="text/css"></style>
  </defs>
  <path
    d="M683.216255 342.6304C683.971455 343.7056 684.662655 344.7424 685.405055 345.8048 533.981055 386.4704 372.560255 356.3264 325.635455 345.856 326.224255 344.8064 326.902655 343.6672 327.478655 342.6304 95.465855 281.1008 178.409855 50.9056 344.528255 112.1664 376.886655-27.4432 638.109055-29.184 666.166655 112.1664 706.166655 81.4208 825.283455 96.32 820.112255 204.352 807.811455 307.328 707.126655 344.9728 683.216255 342.6304ZM709.699455 381.2096C929.475455 707.904 926.326655 900.032 683.216255 987.9296 587.805055 1028.6976 443.216255 1026.3936 342.877055 987.9296 2.665855 855.1808 205.661055 544.832 304.605055 381.4144 506.499455 447.6032 659.190655 401.1392 709.699455 381.2096ZM513.872255 837.4528C617.475455 837.4528 701.469055 753.9072 701.469055 650.8544 701.469055 547.8016 617.475455 464.256 513.872255 464.256 410.256255 464.256 326.275455 547.8016 326.275455 650.8544 326.275455 753.9072 410.256255 837.4528 513.872255 837.4528ZM429.584255 535.7568 511.350655 617.0624 516.176255 617.0624 597.904255 535.808 622.006655 559.7824 547.497855 633.856 616.272255 633.856 616.272255 667.456 530.678655 667.456 530.678655 701.4528 616.272255 701.4528 616.272255 735.4624 530.678655 735.4624 530.678655 786.2528 496.669055 786.2528 496.669055 735.4624 411.472255 735.4624 411.472255 701.4528 496.669055 701.4528 496.669055 667.456 411.472255 667.456 411.472255 633.856 480.029055 633.856 405.469055 559.7184 429.584255 535.7568Z"
    p-id="1887" fill="#ffffff"></path>
</svg>
