<?xml version="1.0" standalone="no"?><!DOCTYPE svg PUBLIC "-//W3C//DTD SVG 1.1//EN" "http://www.w3.org/Graphics/SVG/1.1/DTD/svg11.dtd">
<svg t="1513908078820" class="icon" style="" viewBox="0 0 1024 1024" version="1.1" xmlns="http://www.w3.org/2000/svg"
     p-id="8879"
     width="32" height="32"><defs><style type="text/css"></style></defs><path d="M228.608 960 228.608 363.904c0-23.808-18.368-42.048-40.32-42.048L67.648 321.856c-22.016 0-40.192 20.032-40.192 42.048L27.456 960 228.608 960 228.608 960 228.608 960zM484.544 960 484.544 107.904C484.544 84.16 466.368 64 444.352 64L323.648 64C301.76 64 283.456 84.16 283.456 107.904L283.456 960 484.544 960 484.544 960 484.544 960zM740.544 960 740.544 583.232c0-23.744-18.368-43.968-40.192-43.968L579.776 539.264c-21.952 0-40.256 20.16-40.256 43.968L539.52 960 740.544 960 740.544 960 740.544 960zM996.544 960 996.544 363.904c0-23.808-18.304-42.048-40.256-42.048l-120.704 0c-21.824 0-40.128 20.032-40.128 42.048L795.456 960 996.544 960 996.544 960 996.544 960z" p-id="8880" fill="#ffffff"></path></svg>
