<?xml version="1.0" standalone="no"?><!DOCTYPE svg PUBLIC "-//W3C//DTD SVG 1.1//EN"
  "http://www.w3.org/Graphics/SVG/1.1/DTD/svg11.dtd">
<svg t="1509074280632" class="icon" style="" viewBox="0 0 1031 1024" version="1.1" xmlns="http://www.w3.org/2000/svg"
     p-id="6073"
     width="201.3671875" height="200">
  <defs>
    <style type="text/css"></style>
  </defs>
  <path
    d="M519.752322 972.675208A460.771202 460.771202 0 1 1 519.752322 51.260796a460.771202 460.771202 0 0 1 0 921.414412zM519.752322 0.063996a511.968002 511.968002 0 1 0 0 1023.808012A511.968002 511.968002 0 0 0 519.752322 0.063996z"
    fill="#666" p-id="6074"></path>
  <path
    d="M366.801881 429.28517c0 10.495344 4.351728 20.926692 11.775264 28.350228a40.573464 40.573464 0 0 0 28.350229 11.711268 40.573464 40.573464 0 0 0 28.350228-11.711268 40.573464 40.573464 0 0 0 11.775264-28.350228 40.573464 40.573464 0 0 0-11.775264-28.414224 40.573464 40.573464 0 0 0-28.350228-11.711268 40.573464 40.573464 0 0 0-28.350229 11.711268 40.573464 40.573464 0 0 0-11.711268 28.414224"
    fill="#666" p-id="6075"></path>
  <path
    d="M720.955747 755.664771H306.581645A73.5954 73.5954 0 0 1 233.050241 682.261359V348.010249a73.5954 73.5954 0 0 1 73.531404-73.531404h414.374102a73.5954 73.5954 0 0 1 73.531404 73.531404v334.187114a73.5954 73.5954 0 0 1-73.531404 73.467408M306.581645 314.604337a33.469908 33.469908 0 0 0-33.405912 33.405912v334.187114c0 18.430848 14.975064 33.405912 33.405912 33.405912h414.374102a33.405912 33.405912 0 0 0 33.405912-33.405912V348.010249a33.469908 33.469908 0 0 0-33.405912-33.405912H306.581645"
    fill="#666" p-id="6076"></path>
  <path
    d="M348.691013 668.822199a20.030748 20.030748 0 0 1-19.1988-25.982376c1.535904-4.735704 37.75764-117.11268 114.808825-115.064809 21.950628 0.575964 40.31748 6.07962 58.044372 11.455284 22.846572 6.847572 42.55734 12.7992 68.731704 8.575464 12.7992-2.047872 18.110868-14.911068 27.134304-43.83726 11.903256-38.141616 29.950128-95.67402 109.433161-95.67402a20.030748 20.030748 0 1 1 0 40.061496c-47.613024 0-58.044372 25.726392-71.163553 67.579776-9.087432 29.11818-20.47872 65.27592-59.068308 71.483532-35.261796 5.567652-62.524092-2.55984-86.650584-9.791388-15.871008-4.7997-30.974064-9.343416-47.485032-9.727392H442.317162c-38.909568 0-67.003812 62.524092-74.619337 86.842573a20.030748 20.030748 0 0 1-19.070808 14.07912"
    fill="#666" p-id="6077"></path>
</svg>