<?xml version="1.0" standalone="no"?><!DOCTYPE svg PUBLIC "-//W3C//DTD SVG 1.1//EN"
  "http://www.w3.org/Graphics/SVG/1.1/DTD/svg11.dtd">
<svg t="1509074249104" class="icon" style="" viewBox="0 0 1024 1024" version="1.1" xmlns="http://www.w3.org/2000/svg"
     p-id="5388"
     width="200" height="200">
  <defs>
    <style type="text/css"></style>
  </defs>
  <path
    d="M512 1023.9936c-282.7008 0-512-229.1008-512-511.5264C0 230.0224 229.2992 0 512 0s512 230.0224 512 512.4672C1024 794.8928 794.7008 1023.9936 512 1023.9936zM512 63.9936c-247.36 0-448 201.28-448 448.416C64 759.5328 264.64 960 512 960s448-200.4672 448-447.5904C960 265.2736 759.36 63.9936 512 63.9936zM512 831.9936c-154.8032 0-283.8976-109.9392-313.5488-256l66.5984 0C293.6 686.2208 392.8512 767.9872 512 767.9872s218.3936-81.7664 246.944-191.9936l66.6048 0C795.8912 722.0544 666.8096 831.9936 512 831.9936zM704 383.9936c-35.3472 0-64-28.6528-64-63.9936 0-35.3536 28.6528-64.0064 64-64.0064S768 284.6464 768 320C768 355.3408 739.3472 383.9936 704 383.9936zM320 383.9936c-35.3472 0-64-28.6528-64-63.9936 0-35.3536 28.6528-64.0064 64-64.0064S384 284.6464 384 320C384 355.3408 355.3472 383.9936 320 383.9936z"
    fill="#666" p-id="5389"></path>
</svg>