<?xml version="1.0" standalone="no"?><!DOCTYPE svg PUBLIC "-//W3C//DTD SVG 1.1//EN"
  "http://www.w3.org/Graphics/SVG/1.1/DTD/svg11.dtd">
<svg t="1509074695425" class="icon" style="" viewBox="0 0 1024 1024" version="1.1" xmlns="http://www.w3.org/2000/svg"
     p-id="10751"
     width="200" height="200">
  <defs>
    <style type="text/css"></style>
  </defs>
  <path
    d="M440 441H152.9c-25.9 0-46.9-21-46.9-46.9V106.9C106 81 127 60 152.9 60H440c25.9 0 46.9 21 46.9 46.9V394c0 25.9-21 47-46.9 47zM152.9 90c-9.3 0-16.9 7.6-16.9 16.9V394c0 9.3 7.6 16.9 16.9 16.9H440c9.3 0 16.9-7.6 16.9-16.9V106.9c0-9.3-7.6-16.9-16.9-16.9H152.9zM893.1 441H605.9c-25.9 0-46.9-21-46.9-46.9V106.9C559 81 580 60 605.9 60H893c26 0 47 21 47 46.9V394c0 25.9-21 47-46.9 47zM605.9 90c-9.3 0-16.9 7.6-16.9 16.9V394c0 9.3 7.6 16.9 16.9 16.9H893c9.3 0 16.9-7.6 16.9-16.9V106.9c0-9.3-7.6-16.9-16.9-16.9H605.9zM440 894H152.9c-25.9 0-46.9-21-46.9-46.9V560c0-25.9 21-46.9 46.9-46.9H440c25.9 0 46.9 21 46.9 46.9v287.1c0 25.9-21 46.9-46.9 46.9zM152.9 543.1c-9.3 0-16.9 7.6-16.9 16.9v287.1c0 9.3 7.6 16.9 16.9 16.9H440c9.3 0 16.9-7.6 16.9-16.9V560c0-9.3-7.6-16.9-16.9-16.9H152.9zM893.1 894H605.9c-25.9 0-46.9-21-46.9-46.9V560c0-25.9 21-46.9 46.9-46.9H893c25.9 0 46.9 21 46.9 46.9v287.1C940 873 919 894 893.1 894zM605.9 543.1c-9.3 0-16.9 7.6-16.9 16.9v287.1c0 9.3 7.6 16.9 16.9 16.9H893c9.3 0 16.9-7.6 16.9-16.9V560c0-9.3-7.6-16.9-16.9-16.9H605.9z"
    fill="#666" p-id="10752"></path>
</svg>