<?xml version="1.0" standalone="no"?><!DOCTYPE svg PUBLIC "-//W3C//DTD SVG 1.1//EN"
  "http://www.w3.org/Graphics/SVG/1.1/DTD/svg11.dtd">
<svg t="1509074736026" class="icon" style="" viewBox="0 0 1347 1024" version="1.1" xmlns="http://www.w3.org/2000/svg"
     p-id="11453"
     width="263.0859375" height="200">
  <defs>
    <style type="text/css"></style>
  </defs>
  <path
    d="M508.89216 480.11264c-37.14048-16.31232-80.4352-25.8048-125.94688-25.8048l-1.49504 0.00512-1.67936-0.00512c-45.37856 0-88.54016 9.49248-127.60576 26.60352-7.7568 3.46624-14.48448 13.06112-14.48448 24.23296a27.136 27.136 0 0 0 2.52416 11.45856 28.11904 28.11904 0 0 0 37.22752 13.52192c30.06976-13.2096 65.31584-20.9408 102.3744-20.9408l1.85856 0.00512 1.25952-0.00512a261.632 261.632 0 0 1 104.61184 21.66784c12.47232 5.56032 29.07648-0.6144 35.4304-14.42304a26.81856 26.81856 0 0 0 2.45248-11.2896 27.22304 27.22304 0 0 0-16.35328-24.96512m-0.17408-163.92192c-37.13536-16.31232-80.43008-25.8048-125.93664-25.8048l-1.50016 0.00512-1.78688-0.00512c-45.3376 0-88.46336 9.47712-127.50336 26.56256-7.75168 3.46624-14.47936 13.06112-14.47936 24.23296 0 4.09088 0.90112 7.97696 2.52416 11.45856 6.28224 13.6448 22.8864 19.8144 37.05344 13.59872 30.21312-13.25056 65.4336-20.9664 102.45632-20.9664l1.95584 0.00512 1.35168-0.00512a261.7344 261.7344 0 0 1 104.51968 21.62176c1.66912 0.85504 5.59616 1.73568 9.73312 1.73568a28.50304 28.50304 0 0 0 25.62048-15.98976 27.23328 27.23328 0 0 0-13.82912-36.38272m-0.1792 327.7056c-37.14048-16.31744-80.4352-25.8048-125.94688-25.8048l-1.49504 0.00512-1.67936-0.00512c-45.37856 0-88.54016 9.49248-127.60576 26.5984-7.7568 3.47136-14.48448 13.07136-14.48448 24.23808a27.136 27.136 0 0 0 2.52416 11.45856c6.28224 13.5936 22.89152 19.80928 37.05344 13.5936 30.24384-13.2864 65.49504-21.01248 102.55872-21.01248l1.85344 0.00512h1.25952a261.79584 261.79584 0 0 1 104.61184 21.6576c1.66912 0.86016 5.59616 1.7408 9.73312 1.7408a28.50304 28.50304 0 0 0 25.62048-15.98976 27.22816 27.22816 0 0 0-13.82912-36.4288m526.54592-163.968c-37.13536-16.31232-80.43008-25.8048-125.93664-25.8048l-1.50016 0.00512-1.67936-0.00512c-45.37856 0-88.54016 9.49248-127.60576 26.60352-7.76192 3.46624-14.48448 13.06112-14.48448 24.23296a27.136 27.136 0 0 0 2.52416 11.45856 28.1088 28.1088 0 0 0 25.43104 16.10752c4.20864 0 8.21248-0.92672 11.8016-2.5856 30.06464-13.2096 65.31584-20.9408 102.36928-20.9408l1.85856 0.00512 1.3056-0.00512a261.67296 261.67296 0 0 1 104.61696 21.66784c12.42112 5.56032 29.0304-0.6144 35.3792-14.42304a26.74176 26.74176 0 0 0 2.45248-11.2896 27.22304 27.22304 0 0 0-16.35328-24.96512m-254.85824-163.968c-9.8048 4.26496-16.53248 13.86496-16.53248 25.0368a27.136 27.136 0 0 0 2.52416 11.45856c6.28224 13.6448 22.89152 19.81952 37.04832 13.59872 30.21824-13.25056 65.43872-20.9664 102.46144-20.9664l1.96096 0.00512 1.38752-0.00512a261.7344 261.7344 0 0 1 104.51968 21.62176c1.65888 0.85504 5.58592 1.73056 9.71264 1.73056a28.47744 28.47744 0 0 0 25.59488-15.98464 27.14624 27.14624 0 0 0 2.51904-11.45856 27.21792 27.21792 0 0 0-16.34816-24.96512c-37.31456-16.37888-80.60416-25.87136-126.11584-25.87136l-1.50016 0.00512-1.67936-0.00512c-45.37856 0-88.54016 9.49248-127.60576 26.60352m256.73216 327.0144c-37.13536-16.31744-80.43008-25.8048-125.93664-25.8048l-1.50016 0.00512-1.67936-0.00512c-45.37856 0-88.54016 9.49248-127.60576 26.5984-7.76192 3.47136-14.48448 13.07136-14.48448 24.23808a27.136 27.136 0 0 0 2.52416 11.45856 28.11392 28.11392 0 0 0 25.43104 16.10752c4.20864 0 8.21248-0.92672 11.8016-2.5856 30.06464-13.2096 65.31584-20.9408 102.36928-20.9408l1.85856 0.00512h1.3056a261.8368 261.8368 0 0 1 104.61696 21.6576c12.42112 5.56032 29.0304-0.65024 35.3792-14.41792a26.75712 26.75712 0 0 0 2.45248-11.2896 27.2384 27.2384 0 0 0-16.35328-24.97024l-0.1792-0.05632z"
    fill="#666" p-id="11454"></path>
  <path
    d="M1143.57248 850.34496c-72.73984-21.98528-153.43104-33.4848-235.27424-33.4848-82.0224 0-162.5344 11.5456-235.3152 33.4848V182.67136c71.58272-23.7568 152.4992-36.28032 235.3152-36.28032 82.59584 0 163.73248 12.52352 235.27424 36.28032v667.71968-0.04608z m-997.31968 0V182.67136c71.58272-23.7568 152.4992-36.28032 235.3152-36.28032 82.59584 0 163.73248 12.52352 235.27424 36.28032v667.71968c-72.73984-21.98528-153.43104-33.4848-235.27424-33.4848-82.0224 0-162.5344 11.5456-235.3152 33.4848v-0.04608z m490.39872 64.56832c2.14528 0.6656 4.62848 1.09568 7.1936 1.2032l-4.79744-0.58368c1.60256 0.34816 3.45088 0.55808 5.34016 0.58368l-1.34144-0.0512c0.70656 0.06144 1.52576 0.1024 2.36032 0.1024l-0.45056-0.01024c0.79872 0 1.5872-0.03584 2.36544-0.1024l0.38912-0.08192a28.672 28.672 0 0 0 4.6336-0.82944l-2.41152 0.5632a28.6208 28.6208 0 0 0 6.4256-1.94048l-3.72224 1.31584a28.52864 28.52864 0 0 0 7.74656-3.584l-5.61152 2.9184c75.93984-27.93472 163.59936-42.62912 253.52704-42.62912 86.14912 0 170.65472 13.58336 244.41856 39.3472l9.0624 3.24096a27.89888 27.89888 0 0 0 9.8816 1.76128 28.47744 28.47744 0 0 0 16.06144-4.93056 27.22304 27.22304 0 0 0 11.9808-22.52288V163.30752a27.4944 27.4944 0 0 0-18.05824-25.62048l-0.14336-0.09216c-54.12352-20.56192-116.82304-34.80576-182.08768-39.90016 92.47744 8.50432 1.39264-6.1952-91.15648-6.1952-92.68224 0-183.49056 14.69952-263.33696 42.62912v-0.04608c-79.75424-27.88864-170.83904-42.62912-263.38304-42.62912-96.49664 0-191.04256 15.98464-273.19808 46.18752-10.66496 3.90656-18.1504 13.94688-18.20672 25.74336v725.32992c0 8.97024 4.5312 17.408 12.07808 22.55872a28.22144 28.22144 0 0 0 15.95392 4.87936c3.55328 0 6.95296-0.65024 10.09152-1.83296 75.74016-27.8272 163.4048-42.56256 253.32736-42.56256 86.15424 0 170.65984 13.63456 244.41856 39.38816"
    fill="#666" p-id="11455"></path>
</svg>