<?xml version="1.0" standalone="no"?><!DOCTYPE svg PUBLIC "-//W3C//DTD SVG 1.1//EN" "http://www.w3.org/Graphics/SVG/1.1/DTD/svg11.dtd">
<svg t="1513583299633" class="icon" style="" viewBox="0 0 1024 1024" version="1.1" xmlns="http://www.w3.org/2000/svg"
     p-id="1893"
     width="32" height="32"><defs><style type="text/css"></style></defs><path d="M683.039431 787.911675c4.068735 0 7.425441-4.577326 7.42544-10.171836v-20.343673c0-5.696228-3.356706-10.171836-7.42544-10.171837H340.960569c-4.068735 0-7.425441 4.577326-7.42544 10.171837v20.343673c0 5.696228 3.356706 10.171836 7.42544 10.171836zM266.502726 864.607322v20.343673a10.171836 10.171836 0 0 0 10.171837 10.171837H746.816845a10.171836 10.171836 0 0 0 10.171837-10.171837v-20.343673a10.171836 10.171836 0 0 0-10.171837-10.171836H276.776281a10.171836 10.171836 0 0 0-10.171836 10.171836z m635.434626-747.223108a101.718365 101.718365 0 0 0-65.506627-23.903816h-56.962285a22.174604 22.174604 0 0 0 0 44.450925h56.860566a57.572595 57.572595 0 0 1 57.674313 57.470877v726.777717a57.674313 57.674313 0 0 1-57.674313 57.674313H187.365838a57.674313 57.674313 0 0 1-57.674312-57.674313V195.300481A57.674313 57.674313 0 0 1 187.365838 137.727887h67.84615a22.174604 22.174604 0 1 0 0-44.450926H187.365838a101.718365 101.718365 0 0 0-101.718364 101.718365v726.981154a101.718365 101.718365 0 0 0 101.718364 101.718365h649.064887a101.718365 101.718365 0 0 0 101.718365-101.718365V195.300481a101.718365 101.718365 0 0 0-36.415175-78.017986zM449.18891 328.348102v14.647445c0 49.74028-97.954785 98.25994-154.713633 98.259941a48.621378 48.621378 0 0 0-48.417942 48.723096v44.044052a19.326489 19.326489 0 0 0 19.326489 19.32649h10.171837v92.563712a19.326489 19.326489 0 0 0 19.326489 19.326489h435.354602a19.428208 19.428208 0 0 0 19.326489-19.326489v-92.563712h9.663245a19.224771 19.224771 0 0 0 19.224771-19.224771v-44.145771a48.621378 48.621378 0 0 0-48.417942-48.723096c-56.657129 0-154.611915-48.51966-154.713633-98.056504v-1.627494-17.495559c0-19.631644 0-22.072885 33.973934-56.555411a152.577547 152.577547 0 0 0 9.154653-222.966656 148.712249 148.712249 0 0 0-212.286228 0 152.577547 152.577547 0 0 0 9.052935 222.76322c34.177371 34.889399 34.177371 37.432358 34.17737 61.031018zM710.299952 626.586348h-396.701623v-73.135504h396.701623v73.135504zM511.949141 39.162791a113.314258 113.314258 0 0 1 71.202855 199.367995l-1.525775 1.322339c-39.771881 40.687346-45.671546 50.859182-45.671546 84.426243v18.919616c0 36.313456 25.633028 71.202855 72.423476 99.683997a257.652618 257.652618 0 0 0 121.044854 37.127204 10.171836 10.171836 0 0 1 9.663245 10.171836v24.819281H284.710314v-25.022718a10.171836 10.171836 0 0 1 9.663244-10.171836 257.652618 257.652618 0 0 0 121.044855-37.127203c46.688729-27.97255 72.423476-63.47226 72.423475-99.785716v-14.545727a85.952018 85.952018 0 0 0-7.934032-42.823431 208.115775 208.115775 0 0 0-38.246105-45.773264l-1.220621-1.118902a113.314258 113.314258 0 0 1 71.202856-199.571432z" fill="#666" p-id="1894"></path></svg>