<?xml version="1.0" standalone="no"?><!DOCTYPE svg PUBLIC "-//W3C//DTD SVG 1.1//EN"
  "http://www.w3.org/Graphics/SVG/1.1/DTD/svg11.dtd">
<svg t="1509072992552" class="icon" style="" viewBox="0 0 1024 1024" version="1.1" xmlns="http://www.w3.org/2000/svg"
     p-id="7050"
     width="200" height="200">
  <defs>
    <style type="text/css"></style>
  </defs>
  <path
    d="M427.190429 757.524926 427.190429 337.823052c0-11.587919-9.394974-20.98494-20.98494-20.98494s-20.98494 9.397021-20.98494 20.98494l0 419.701874c0 11.592013 9.394974 20.98494 20.98494 20.98494S427.190429 769.117962 427.190429 757.524926zM930.833087 211.914434 762.952542 211.914434l0-83.940784c0-34.769898-28.186969-62.954821-62.954821-62.954821L322.264705 65.018829c-34.767851 0-62.955844 28.184923-62.955844 62.954821l0 83.940784L91.428316 211.914434c-11.589966 0-20.98494 9.392928-20.98494 20.982894 0 11.592013 9.394974 20.98494 20.98494 20.98494l839.404772 0c11.589966 0 20.98494-9.392928 20.98494-20.98494C951.818027 221.307362 942.423053 211.914434 930.833087 211.914434zM720.981638 211.914434 301.279764 211.914434l0-83.940784c0-11.592013 9.394974-20.986987 20.98494-20.986987l377.731994 0c11.589966 0 20.98494 9.394974 20.98494 20.986987L720.981638 211.914434zM637.041878 757.524926 637.041878 337.823052c0-11.587919-9.394974-20.98494-20.98494-20.98494s-20.98494 9.397021-20.98494 20.98494l0 419.701874c0 11.592013 9.394974 20.98494 20.98494 20.98494S637.041878 769.117962 637.041878 757.524926zM825.907363 316.840158c-11.589966 0-20.98494 9.394974-20.98494 20.98494l0 545.613562c0 11.587919-9.394974 20.98494-20.98494 20.98494L238.32392 904.423601c-11.589966 0-20.98494-9.397021-20.98494-20.98494L217.33898 337.825099c0-11.589966-9.394974-20.98494-20.98494-20.98494s-20.98494 9.394974-20.98494 20.98494l0 545.613562c0 34.769898 28.184923 62.954821 62.955844 62.954821l545.612539 0c34.769898 0 62.955844-28.184923 62.955844-62.954821L846.893326 337.825099C846.892303 326.235133 837.497329 316.840158 825.907363 316.840158z"
    fill="#666" p-id="7051"></path>
</svg>