<?xml version="1.0" standalone="no"?><!DOCTYPE svg PUBLIC "-//W3C//DTD SVG 1.1//EN"
  "http://www.w3.org/Graphics/SVG/1.1/DTD/svg11.dtd">
<svg t="1509073260358" class="icon" style="" viewBox="0 0 1024 1024" version="1.1" xmlns="http://www.w3.org/2000/svg"
     p-id="9065"
     width="200" height="200">
  <defs>
    <style type="text/css"></style>
  </defs>
  <path
    d="M895.38576 831.089385c0 34.713616-29.184693 63.901379-63.897286 63.901379l-641.070634 1.044796c-34.712593 0-62.851467-28.135804-62.851467-62.841234l1.046842-641.080867c0-34.713616 29.186739-63.899332 63.897286-63.899332l351.438141 0L543.948643 64.317864 192.510502 64.317864c-69.421092 0-127.794571 70.945819-127.794571 140.362818l0 628.513644c0 69.416999 56.277748 125.6927 125.700887 125.6927l628.502387 0c69.421092 0 140.364865-58.373479 140.364865-127.797641l0-351.434048-63.898309 0L895.38576 831.089385zM926.636508 64.317864 703.693904 64.317864c-18.128893 0.027629-31.922037 14.656815-31.949666 31.949666-0.026606 17.287735 13.820774 31.974225 31.949666 31.946596l140.396587-1.022283L362.076432 586.925457c-12.749372 12.161994-12.749372 31.879058 0 44.041052 12.750395 12.156878 33.422204 12.156878 46.169529 0l486.191194-463.721437 0.948605 152.665005c-0.026606 17.287735 13.821797 31.974225 31.948643 31.946596 18.128893-0.022513 31.922037-14.658861 31.949666-31.946596L959.284069 95.457072C959.306582 78.169337 944.760285 64.297398 926.636508 64.317864z"
    fill="#e64340" p-id="9066"></path>
</svg>