<?xml version="1.0" standalone="no"?><!DOCTYPE svg PUBLIC "-//W3C//DTD SVG 1.1//EN"
  "http://www.w3.org/Graphics/SVG/1.1/DTD/svg11.dtd">
<svg t="1509089999808" class="icon" style="" viewBox="0 0 1024 1024" version="1.1" xmlns="http://www.w3.org/2000/svg"
     p-id="4876"
     width="32" height="32">
  <defs>
    <style type="text/css"></style>
  </defs>
  <path
    d="M902.64576 131.66592H123.05408c-53.59616 0-97.45408 50.39104-97.45408 111.98464v615.90528c0 61.57312 43.84768 111.9744 97.45408 111.9744h779.60192c53.6064 0 97.45408-50.40128 97.45408-111.9744V243.64032c-0.01024-61.58336-43.84768-111.9744-97.46432-111.9744z m-779.59168 55.98208h779.60192c26.88 0 48.73216 25.11872 48.73216 55.99232v519.74144l-198.05184-212.5312-118.3744 180.3264-240.9984-362.81344-319.63136 391.48544V243.64032c-0.01024-30.8736 21.84192-55.99232 48.72192-55.99232z m779.59168 727.86944H123.05408c-26.88 0-48.72192-25.09824-48.72192-55.97184v-17.8688L390.144 454.8608l245.05344 368.96768 124.43648-189.60384 191.75424 205.7728v19.54816c-0.01024 30.8736-21.8624 55.97184-48.7424 55.97184z"
    fill="#e64340" p-id="4877"></path>
  <path
    d="M756.48 461.62944c53.8112 0 97.44384-53.71904 97.44384-119.97184 0-66.26304-43.63264-119.98208-97.44384-119.98208s-97.45408 53.71904-97.45408 119.98208c0 66.24256 43.64288 119.97184 97.45408 119.97184z m0-179.968c26.86976 0 48.73216 26.90048 48.73216 59.98592 0 33.0752-21.8624 59.97568-48.73216 59.97568s-48.73216-26.90048-48.73216-59.97568c0-33.08544 21.8624-59.98592 48.73216-59.98592z"
    fill="#e64340" p-id="4878"></path>
</svg>