<?xml version="1.0" standalone="no"?><!DOCTYPE svg PUBLIC "-//W3C//DTD SVG 1.1//EN"
  "http://www.w3.org/Graphics/SVG/1.1/DTD/svg11.dtd">
<svg t="1509072934982" class="icon" style="" viewBox="0 0 1024 1024" version="1.1" xmlns="http://www.w3.org/2000/svg"
     p-id="6393"
     width="200" height="200">
  <defs>
    <style type="text/css"></style>
  </defs>
  <path
    d="M878.592 953.28H145.408A145.664 145.664 0 0 1 0 807.744V216.192a145.6 145.6 0 0 1 145.408-145.408h733.12A145.6 145.6 0 0 1 1024 216.192v591.552a145.664 145.664 0 0 1-145.408 145.536zM145.408 134.784C100.544 134.784 64 171.328 64 216.192v591.552c0 44.864 36.544 81.472 81.408 81.472h733.12c44.864 0 81.408-36.608 81.408-81.472V216.192c0-44.928-36.544-81.408-81.408-81.408H145.408z"
    fill="#666" p-id="6394"></path>
  <path
    d="M173.568 707.968a32 32 0 0 1-22.656-54.592l180.032-180.352a31.936 31.936 0 0 1 45.248-0.064l152.64 152.192 298.944-299.776a32.064 32.064 0 0 1 45.376 45.184l-321.536 322.496a32.192 32.192 0 0 1-45.312 0.128l-152.704-152.32-157.376 157.76a31.872 31.872 0 0 1-22.656 9.344z"
    fill="#666" p-id="6395"></path>
  <path d="M850.432 379.968h-186.56a32 32 0 0 1 0-64h186.56a32 32 0 0 1 0 64z" fill="#666" p-id="6396"></path>
  <path d="M850.432 566.528a32 32 0 0 1-32-32V347.968a32 32 0 0 1 64 0v186.56a32 32 0 0 1-32 32z" fill="#666"
        p-id="6397"></path>
</svg>