<?xml version="1.0" standalone="no"?><!DOCTYPE svg PUBLIC "-//W3C//DTD SVG 1.1//EN"
  "http://www.w3.org/Graphics/SVG/1.1/DTD/svg11.dtd">
<svg t="1509074458750" class="icon" style="" viewBox="0 0 1024 1024" version="1.1" xmlns="http://www.w3.org/2000/svg"
     p-id="8063"
     width="200" height="200">
  <defs>
    <style type="text/css"></style>
  </defs>
  <path
    d="M836.313 191.549H187.738c-44.59 0-81.073 36.002-81.073 80.005v480.03c0 44.004 36.483 80.006 81.073 80.006h648.575c44.59 0 81.072-36.002 81.072-80.005V271.554c0-44.003-36.482-80.005-81.072-80.005z m12.8 560.036c0 6.25-5.98 11.735-12.8 11.735H187.738c-6.82 0-12.8-5.485-12.8-11.735V271.554c0-6.25 5.98-11.736 12.8-11.736h648.575c6.82 0 12.8 5.485 12.8 11.736v480.03z"
    fill="#666" p-id="8064"></path>
  <path d="M213.34 319.557v73.148l298.686 182.869 298.686-182.869v-73.148L512.026 502.426z" fill="#666"
        p-id="8065"></path>
</svg>