<?xml version="1.0" standalone="no"?><!DOCTYPE svg PUBLIC "-//W3C//DTD SVG 1.1//EN"
  "http://www.w3.org/Graphics/SVG/1.1/DTD/svg11.dtd">
<svg t="1509074056983" class="icon" style="" viewBox="0 0 1024 1024" version="1.1" xmlns="http://www.w3.org/2000/svg"
     p-id="2941"
     width="200" height="200">
  <defs>
    <style type="text/css"></style>
  </defs>
  <path
    d="M1004.498845 512.063955l-19.340989 0c0 130.690071-52.949551 248.876702-138.571363 334.52819C760.939099 932.245679 642.842517 985.212625 512.081839 985.212625c-130.680862 0-248.882842-52.966946-334.504654-138.620481-85.54609-85.653534-138.610248-203.838118-138.610248-334.52819 0-130.691095 53.064158-248.876702 138.610248-334.52819C263.200021 91.779903 381.402 38.927564 512.081839 38.927564c130.759654 0 248.856236 52.865642 334.504654 138.608201 85.621813 85.651488 138.571363 203.839141 138.571363 334.52819L1004.498845 512.063955l19.466852 0c0-282.820899-229.110029-512.039396-511.897161-512.039396C229.348942 0.024559 0.033233 229.229753 0.033233 512.063955c0 282.845458 229.315708 511.936045 512.036326 511.936045 282.775875 0 511.897161-229.090587 511.897161-511.936045L1004.498845 512.063955 1004.498845 512.063955z"
    fill="#e64340" p-id="2942"></path>
  <path
    d="M676.145118 395.554478l-19.453549 0c0 39.865911-16.063427 75.918062-42.289034 102.224508-26.303376 26.2297-62.266502 42.421037-102.318649 42.421037-39.976425 0-76.01425-16.190314-102.241903-42.421037-26.228677-26.305423-42.392385-62.370877-42.392385-102.224508 0-40.079776 16.162685-76.120671 42.392385-102.337068 26.239933-26.2297 62.263432-42.293127 102.241903-42.293127 40.053171 0 76.015273 16.050125 102.318649 42.293127 26.225607 26.2297 42.289034 62.256269 42.289034 102.337068L676.145118 395.554478l19.44434 0c0-101.409978-82.037268-183.544457-183.517852-183.544457-101.403838 0-183.541387 82.143689-183.541387 183.544457 0 101.285138 82.149828 183.544457 183.541387 183.544457 101.480584 0 183.517852-82.24704 183.517852-183.544457L676.145118 395.554478 676.145118 395.554478z"
    fill="#e64340" p-id="2943"></path>
  <path
    d="M136.329848 830.540997c12.683538-16.596555 26.430263-32.352999 41.249383-47.043187 85.621813-85.653534 203.823792-138.622527 334.504654-138.622527 130.757608 0 248.856236 52.968993 334.504654 138.622527 14.689164 14.689164 28.527984 30.446631 41.222778 47.043187 8.665123-10.266554 16.799165-20.751066 24.627246-31.631588-93.781436-117.57471-238.287815-192.844013-400.354678-192.844013-162.092445 0-306.612126 75.27135-400.390493 192.844013C119.531707 809.78993 127.767053 820.274443 136.329848 830.540997L136.329848 830.540997z"
    fill="#e64340" p-id="2944"></path>
</svg>