<?xml version="1.0" standalone="no"?><!DOCTYPE svg PUBLIC "-//W3C//DTD SVG 1.1//EN"
  "http://www.w3.org/Graphics/SVG/1.1/DTD/svg11.dtd">
<svg t="1509074409215" class="icon" style="" viewBox="0 0 1024 1024" version="1.1" xmlns="http://www.w3.org/2000/svg"
     p-id="7402"
     width="200" height="200">
  <defs>
    <style type="text/css"></style>
  </defs>
  <path
    d="M511.999488 955.886693c-59.917648 0-118.051673-11.738345-172.786275-34.889625-52.859905-22.358217-100.329033-54.361095-141.089365-95.122451-40.761356-40.760332-72.764234-88.230484-95.122451-141.089365-23.151279-54.734602-34.889625-112.868627-34.889625-172.786275 0-59.917648 11.738345-118.051673 34.889625-172.786275 22.357194-52.859905 54.361095-100.329033 95.122451-141.089365 40.761356-40.761356 88.230484-72.764234 141.089365-95.122451 54.734602-23.151279 112.867604-34.889625 172.786275-34.889625 59.917648 0 118.05065 11.738345 172.786275 34.889625 52.858882 22.358217 100.329033 54.361095 141.089365 95.122451 40.761356 40.761356 72.764234 88.230484 95.122451 141.089365 23.151279 54.734602 34.889625 112.867604 34.889625 172.786275 0 59.917648-11.738345 118.05065-34.889625 172.786275-22.358217 52.858882-54.361095 100.329033-95.122451 141.089365-40.760332 40.761356-88.230484 72.764234-141.089365 95.122451C630.050138 944.149371 571.917136 955.886693 511.999488 955.886693zM511.999488 98.81147c-227.832985 0-413.187507 185.355545-413.187507 413.18853 0 227.832985 185.355545 413.187507 413.187507 413.187507S925.186995 739.832985 925.186995 512C925.186995 284.167015 739.83145 98.81147 511.999488 98.81147z"
    fill="#666" p-id="7403"></path>
  <path
    d="M749.671563 537.582655 276.418029 537.582655c-8.477069 0-15.349593-6.872524-15.349593-15.349593s6.872524-15.349593 15.349593-15.349593l473.253534 0c8.477069 0 15.349593 6.872524 15.349593 15.349593S758.148631 537.582655 749.671563 537.582655z"
    fill="#666" p-id="7404"></path>
  <path
    d="M749.671563 666.818041 276.418029 666.818041c-8.477069 0-15.349593-6.872524-15.349593-15.349593s6.872524-15.349593 15.349593-15.349593l473.253534 0c8.477069 0 15.349593 6.872524 15.349593 15.349593S758.148631 666.818041 749.671563 666.818041z"
    fill="#666" p-id="7405"></path>
  <path
    d="M511.999488 785.003767c-8.477069 0-15.349593-6.872524-15.349593-15.349593L496.649895 510.259356c0-8.477069 6.872524-15.349593 15.349593-15.349593s15.349593 6.872524 15.349593 15.349593l0 259.394818C527.349081 778.131243 520.476557 785.003767 511.999488 785.003767z"
    fill="#666" p-id="7406"></path>
  <path d="M317.347207 254.445086" fill="#666" p-id="7407"></path>
  <path
    d="M512.128425 546.011628 305.132001 273.972838c-5.133927-6.746658-3.826142-16.376992 2.920516-21.509896 6.745634-5.133927 16.376992-3.826142 21.509896 2.920516l182.308139 239.59282 178.422645-239.469c5.064342-6.798846 14.682397-8.202822 21.479197-3.137457 6.798846 5.065366 8.202822 14.681374 3.137457 21.479197L512.128425 546.011628z"
    fill="#666" p-id="7408"></path>
</svg>