<?xml version="1.0" standalone="no"?><!DOCTYPE svg PUBLIC "-//W3C//DTD SVG 1.1//EN"
  "http://www.w3.org/Graphics/SVG/1.1/DTD/svg11.dtd">
<svg t="1509072855955" class="icon" style="" viewBox="0 0 1024 1024" version="1.1" xmlns="http://www.w3.org/2000/svg"
     p-id="5721"
     width="200" height="200">
  <defs>
    <style type="text/css"></style>
  </defs>
  <path
    d="M885.054461 757.753123c-17.272385 0-31.277354 14.003945-31.277354 31.277354l0 62.971194c0 10.527774-8.56098 19.092847-19.092847 19.092847L148.387585 871.094518c-10.525728 0-19.092847-8.566096-19.092847-19.092847L129.294738 171.999352c0-10.527774 8.567119-19.094894 19.092847-19.094894l686.295652 0c10.532891 0 19.092847 8.567119 19.092847 19.094894l0 69.258387c0 17.278525 14.004969 31.28247 31.28247 31.28247 17.272385 0 31.277354-14.003945 31.277354-31.28247l0-69.258387c0-45.01831-36.630269-81.648578-81.653695-81.648578L148.387585 90.350774c-45.016263 0-81.646532 36.630269-81.646532 81.648578l0 680.002318c0 45.023426 36.630269 81.646532 81.646532 81.646532l686.295652 0c45.023426 0 81.653695-36.624129 81.653695-81.646532l0-62.971194C916.336932 771.757069 902.33094 757.753123 885.054461 757.753123L885.054461 757.753123zM885.054461 757.753123"
    fill="#666" p-id="5722"></path>
  <path
    d="M957.234387 495.169683c0.005117-0.376577 0.024559-0.7552 0.024559-1.133823 0-21.809725-8.492418-42.316781-23.913643-57.732889L779.886213 282.838763c-12.213159-12.213159-32.023344-12.213159-44.23548 0-12.213159 12.218276-12.213159 32.017204 0 44.23548l137.913023 137.907906L330.97918 464.98215c-17.272385 0-31.276331 14.003945-31.276331 31.277354 0 17.272385 14.003945 31.276331 31.276331 31.276331l538.131147 0L730.326471 666.319691c-12.213159 12.213159-12.213159 32.018228 0 44.23241 6.109138 6.108115 14.113439 9.163707 22.11774 9.163707 8.004301 0 16.008602-3.055592 22.11774-9.163707L933.345304 551.769772c13.975293-13.974269 22.23235-32.122605 23.664979-51.628868 0.159636-1.274016 0.248663-2.562359 0.248663-3.880377C957.258946 495.892137 957.24462 495.53398 957.234387 495.169683L957.234387 495.169683zM957.234387 495.169683"
    fill="#666" p-id="5723"></path>
</svg>