<?xml version="1.0" standalone="no"?><!DOCTYPE svg PUBLIC "-//W3C//DTD SVG 1.1//EN"
  "http://www.w3.org/Graphics/SVG/1.1/DTD/svg11.dtd">
<svg t="1509074774052" class="icon" style="" viewBox="0 0 1024 1024" version="1.1" xmlns="http://www.w3.org/2000/svg"
     p-id="12666"
     width="200" height="200">
  <defs>
    <style type="text/css"></style>
  </defs>
  <path
    d="M833.536 935.424h69.44V865.92h-69.44v69.44z m62.08-442.304c-91.328-3.712-149.888 40.192-168.128 124.288l62.144 14.656c14.72-58.432 43.904-87.808 95.04-84.096 43.904 3.712 65.92 25.6 69.44 62.144 3.712 25.6-18.24 54.848-58.432 84.096-40.192 25.6-58.432 62.144-54.848 98.752v21.952h54.848v-18.24c0-29.248 14.656-54.912 51.2-76.8 54.848-32.96 80.384-73.152 76.8-117.056-7.424-65.792-51.2-106.048-128-109.696zM764.16 298.176V262.4s-3.712-7.168-7.296-7.168H157.184c-3.648 0-7.232 0-7.232 7.168v35.712s3.648 7.168 7.232 7.168h595.968c7.232-0.128 10.944-0.128 10.944-7.168z"
    fill="#666" p-id="12667"></path>
  <path
    d="M764.16 706.944v-35.712s-3.776-7.168-7.36-7.168H157.184c-3.648 0-7.232 0-7.232 7.168v35.712s3.648 7.168 7.232 7.168h595.968c7.232 0 10.944 0 10.944-7.168zM512.704 510.72v-35.648s-2.176-7.168-4.352-7.168H154.24c-2.176 0-4.288 0-4.288 7.168v35.648s2.112 7.232 4.288 7.232h352c4.352 0 6.528 0 6.528-7.232z"
    fill="#666" p-id="12668"></path>
  <path
    d="M47.168 831.36V138.88C47.168 76.8 76.8 50.176 138.944 50.176h687.36c62.08 0 91.712 26.56 91.712 88.704v275.648h47.168V138.88A139.008 139.008 0 0 0 826.304 0H138.88A138.88 138.88 0 0 0 0 138.88v692.48a138.88 138.88 0 0 0 138.944 138.816h584.96v-46.144h-584.96c-62.08 0.064-91.776-30.592-91.776-92.736z"
    fill="#666" p-id="12669"></path>
</svg>