<?xml version="1.0" standalone="no"?><!DOCTYPE svg PUBLIC "-//W3C//DTD SVG 1.1//EN"
  "http://www.w3.org/Graphics/SVG/1.1/DTD/svg11.dtd">
<svg t="1509074862945" class="icon" style="" viewBox="0 0 1024 1024" version="1.1" xmlns="http://www.w3.org/2000/svg"
     p-id="13998"
     width="200" height="200">
  <defs>
    <style type="text/css"></style>
  </defs>
  <path
    d="M908.567 454.755c-15.508 0-28.085 12.98-28.137 29.011h-0.002v246.831c0 38.581-31.277 69.857-69.857 69.857h-617.076c-38.581 0-69.857-31.277-69.857-69.857v-493.661c0-38.581 31.277-69.857 69.857-69.857h302.126c0.195 0.004 0.39 0.015 0.587 0.015 14.605 0 26.446-12.249 26.446-27.358 0-15.107-11.841-27.358-26.446-27.358-0.003 0-0.006 0-0.011 0v-0.022h-339.502c-51.442 0-93.143 41.701-93.143 93.143v556.532c0 51.442 41.701 93.143 93.143 93.143h686.934c51.442 0 93.143-41.701 93.143-93.143v-278.267h-0.069c-0.051-16.029-12.627-29.010-28.135-29.010z"
    fill="#666" p-id="13999"></path>
  <path
    d="M973.458 260.433v-0.317l-209.89-210.329-0.814 0.844c-4.506-2.527-9.596-3.868-14.858-3.868-16.949 0-30.734 13.81-30.734 30.787 0 5.295 1.335 10.382 3.871 14.887l-0.907 0.932 141.653 142.032-145.373 0.053c-236.7 29.516-294.82 175.962-311.943 403.327 0 16.979 13.779 30.787 30.73 30.787 13.844 0 25.589-9.216 29.427-21.86l1.396-8.174c17.998-215.033 60.386-321.127 251.497-342.471h144.267l-135.373 135.753-5.491 7.733c-1.951 4.1-2.97 9.098-2.97 13.633 0 16.983 13.786 30.793 30.734 30.793 4.825 0 10.148-1.165 14.42-3.374l209.495-208.633c1.858-1.308 4.135-4.519 4.135-6.962s-1.414-4.277-3.271-5.579z"
    fill="#666" p-id="14000"></path>
</svg>