<?xml version="1.0" standalone="no"?><!DOCTYPE svg PUBLIC "-//W3C//DTD SVG 1.1//EN"
  "http://www.w3.org/Graphics/SVG/1.1/DTD/svg11.dtd">
<svg t="1509073089708" class="icon" style="" viewBox="0 0 1024 1024" version="1.1" xmlns="http://www.w3.org/2000/svg"
     p-id="7720"
     width="200" height="200">
  <defs>
    <style type="text/css"></style>
  </defs>
  <path
    d="M725.344 341.328H298.672c-25.6 0-42.672-17.072-42.672-42.672s17.072-42.672 42.672-42.672h426.672c25.6 0 42.656 17.072 42.656 42.672 0 25.616-17.056 42.672-42.656 42.672z"
    fill="#e64340" p-id="7721"></path>
  <path
    d="M298.672 384C273.072 384 256 366.928 256 341.328v-42.672c0-25.6 17.072-42.672 42.672-42.672s42.672 17.072 42.672 42.672v42.672c-0.016 25.6-17.072 42.672-42.672 42.672zM725.344 384c-25.632 0-42.688-17.072-42.688-42.672v-42.672c0-25.6 17.056-42.672 42.688-42.672 25.6 0 42.656 17.072 42.656 42.672v42.672c0 25.6-17.056 42.672-42.656 42.672zM512 768c-25.6 0-42.672-17.056-42.672-42.656V298.672C469.328 273.072 486.4 256 512 256c25.6 0 42.656 17.072 42.656 42.672v426.672C554.656 750.944 537.6 768 512 768z"
    fill="#e64340" p-id="7722"></path>
  <path
    d="M554.656 768h-85.328c-25.6 0-42.672-17.056-42.672-42.656 0-25.632 17.072-42.688 42.672-42.688h85.328c25.632 0 42.688 17.056 42.688 42.688 0 25.6-17.056 42.656-42.688 42.656z"
    fill="#e64340" p-id="7723"></path>
  <path
    d="M862.464 34.096H161.536c-17.616 0-127.44 0-127.44 127.44v700.896c0 127.472 127.44 127.472 127.44 127.472h700.928c127.456 0 127.456-127.472 127.456-127.472V161.536c-0.016-127.44-109.824-127.44-127.456-127.44z m63.728 828.336s0 63.696-63.712 63.696H161.552s-63.712-2.576-63.712-63.696V161.536c0-63.712 46.096-63.712 63.696-63.712h700.928c17.648 0 63.712 0 63.712 63.712v700.896z"
    fill="#e64340" p-id="7724"></path>
</svg>