<?xml version="1.0" standalone="no"?><!DOCTYPE svg PUBLIC "-//W3C//DTD SVG 1.1//EN"
        "http://www.w3.org/Graphics/SVG/1.1/DTD/svg11.dtd">
<svg t="1513246830328" class="icon" style="" viewBox="0 0 1518 1024" version="1.1" xmlns="http://www.w3.org/2000/svg"
     p-id="1502" width="47.4375" height="32">
    <defs>
        <style type="text/css"></style>
    </defs>
    <path d="M17.066667 159.3344V927.232a76.834133 76.834133 0 0 0 76.8 76.834133h1331.2c42.376533 0 76.8-34.4064 76.8-76.834133V159.3344a76.834133 76.834133 0 0 0-76.8-76.8512h-1331.2A76.8512 76.8512 0 0 0 17.066667 159.3344z m-17.066667 0a93.917867 93.917867 0 0 1 93.866667-93.917867h1331.2c51.831467 0 93.866667 42.069333 93.866666 93.917867V927.232a93.917867 93.917867 0 0 1-93.866666 93.9008h-1331.2A93.9008 93.9008 0 0 1 0 927.249067V159.3344z m418.133333 154.965333H1109.333333v-34.133333H418.133333v17.066667h682.666667l-8.533333-8.533334v17.066667l8.533333-8.533333h-682.666667v17.066666z m-221.866666 152.183467h564.7872v-34.133333H196.266667v17.066666h556.253866l-8.533333-8.533333v17.066667l8.533333-8.533334H196.266667v17.066667z m0 102.4H682.666667v-34.133333H196.266667v17.066666h477.866666l-8.533333-8.533333v17.066667l8.533333-8.533334h-477.866666v17.066667z m0 102.4H870.4v-34.133333H196.266667v17.066666h665.6l-8.533334-8.533333v17.066667l8.533334-8.533334h-665.6v17.066667z m0 102.4h564.7872v-34.133333H196.266667v17.066666h556.253866l-8.533333-8.533333v17.066667l8.533333-8.533334H196.266667v17.066667zM753.783467 221.866667c-65.8432 0-119.466667-49.493333-119.466667-110.933334s53.623467-110.933333 119.466667-110.933333c65.826133 0 119.466667 49.493333 119.466666 110.933333s-53.640533 110.933333-119.466666 110.933334z m494.933333 674.133333c51.950933 0 93.866667-38.314667 93.866667-85.333333s-41.915733-85.333333-93.866667-85.333334c-51.968 0-93.866667 38.314667-93.866667 85.333334s41.898667 85.333333 93.866667 85.333333z m0 17.066667c-61.064533 0-110.933333-45.602133-110.933333-102.4s49.8688-102.4 110.933333-102.4 110.933333 45.602133 110.933333 102.4-49.8688 102.4-110.933333 102.4z m-24.1152-19.9168H810.666667v-17.066667h377.770666H810.666667v-17.066667h360.686933a79.650133 79.650133 0 0 1-16.503467-48.349866c0-47.274667 42.154667-85.333333 93.866667-85.333334 51.694933 0 93.866667 38.058667 93.866667 85.333334a79.650133 79.650133 0 0 1-16.520534 48.349866h49.390934v34.133334h-102.638934a102.826667 102.826667 0 0 1-24.098133 2.850133c-8.328533 0-16.418133-0.989867-24.1152-2.850133z m84.3776-17.066667h57.941333l-8.533333-8.533333v17.066666l8.533333-8.533333h-57.941333z m-82.261333 0h43.997866-44.014933z m-32.187734-17.066667h108.373334c13.994667-12.3904 22.613333-29.5424 22.613333-48.349866 0-37.4272-34.167467-68.266667-76.8-68.266667-42.6496 0-76.8 30.839467-76.8 68.266667 0 18.807467 8.618667 35.959467 22.613333 48.349866z"
          fill="#666"    p-id="1503"></path>
</svg>