<?xml version="1.0" standalone="no"?><!DOCTYPE svg PUBLIC "-//W3C//DTD SVG 1.1//EN"
        "http://www.w3.org/Graphics/SVG/1.1/DTD/svg11.dtd">
<svg t="1513246864614" class="icon" style="" viewBox="0 0 1024 1024" version="1.1" xmlns="http://www.w3.org/2000/svg"
     p-id="1895" width="32" height="32">
    <defs>
        <style type="text/css"></style>
    </defs>
    <path d="M947.712 598.912c16.8704 14.7968 28.928 54.7328 28.928 101.6576 0 46.9504-12.0576 86.8864-28.928 101.6832v161.1264A60.8768 60.8768 0 0 1 886.784 1024H141.1072a60.8768 60.8768 0 0 1-60.9792-60.6208v-161.1264C63.2832 787.456 51.2 747.52 51.2 700.5696c0-46.9248 12.0832-86.8608 28.928-101.6576v-146.7648a60.8768 60.8768 0 0 1 60.9792-60.6208h184.9344c0-27.648 16.6144-20.224 43.4432-33.4592l73.5744-32.8704v-6.656c-31.7696-15.6672-54.1184-41.5488-66.5856-77.1328-18.944-9.088-31.0016-26.7776-31.0016-46.6176v-17.664c0-16.2304 8.2688-31.3344 22.1184-41.3184a182.8096 182.8096 0 0 1 13.696-46.7968c2.8928-6.4 5.3504-11.1616 7.3472-15.0784 5.2736-10.2912 5.2736-10.2912 1.536-27.5456-1.8688-8.448-3.0976-16.128-3.9168-22.7328-1.2288-9.5232 4.5056-18.4064 14.336-22.016a24.832 24.832 0 0 1 27.3408 6.5792c3.84 4.4032 9.8816 9.1392 17.8688 14.0032 21.376 13.0304 46.08 14.336 62.9504 13.0816 4.0192-0.256 8.1664-0.4096 12.3904-0.4096 89.5488 0 141.056 33.8688 153.2416 100.6848 14.0544 9.984 22.4512 25.1648 22.4512 41.5232v17.6896c0 19.84-12.0832 37.5296-30.976 46.6176-12.4928 35.5584-34.816 61.44-66.6112 77.1584v6.8352l71.0144 32.8448c28.416 12.928 46.1568 4.5056 46.1568 33.28h170.3424a60.8768 60.8768 0 0 1 60.9536 60.6208v146.7648z m-28.928 203.3408c-16.8192-14.7968-28.9024-54.7328-28.9024-101.6832 0-46.9248 12.0832-86.8608 28.928-101.6576v-146.7648a32 32 0 0 0-32.0512-31.872H141.1072a32 32 0 0 0-32.0768 31.872v146.7648c16.8704 14.7968 28.928 54.7328 28.928 101.6576 0 46.9504-12.0576 86.8864-28.928 101.6832v161.1264a32 32 0 0 0 32.0768 31.872h745.6512a32 32 0 0 0 32.0512-31.872v-161.1264z m-527.36-410.7264h265.3952l-73.472-33.9968c-11.5968-5.3504-18.816-16-18.816-27.8272v-32l11.776-4.6336c29.6192-11.5712 48.896-33.6128 58.88-67.4304l2.7904-9.4208 10.24-2.8928c8.192-2.304 13.9264-9.1904 13.9264-16.7424v-17.664c0-6.4512-4.096-12.416-10.5984-15.5648l-9.088-4.352-1.2032-9.216c-6.9632-53.7856-42.6496-77.7472-115.7376-77.7472-3.2 0-6.2976 0.1024-9.3184 0.3328-29.9264 2.048-57.4976-2.9952-80.4608-14.8736 1.664 13.6192-0.768 20.2752-7.3728 33.152-1.792 3.5072-3.9936 7.808-6.5792 13.568A153.2416 153.2416 0 0 0 409.6 149.6064l-1.0752 9.3696-9.1392 4.4032c-6.528 3.1488-10.5728 9.088-10.5728 15.488v17.664c0 7.5776 5.7344 14.464 13.8752 16.768l10.2656 2.9184 2.816 9.4208c9.984 33.792 29.2352 55.8592 58.8544 67.4304l11.776 4.608v31.8464c0 11.8784-7.5776 22.8864-19.328 28.0832l-75.264 33.6128a1.0496 1.0496 0 0 0-0.4352 0.2816z m324.992 0h-59.5968l0.0768 0.0512h59.52v-0.0512z m-390.3744 0v0.0512h65.3312l0.0256-0.0512h-65.3568z m500.7616 406.016a61.184 61.184 0 0 1 34.1504 55.04v17.8688c0 11.5456 0 38.5536-144.5888 38.5536-144.6144 0-144.6144-27.008-144.6144-38.5536v-19.0464a61.44 61.44 0 0 1 32.256-54.016l54.528-26.7008v-5.4016c-23.552-12.7744-40.1152-33.792-49.3568-62.72a42.752 42.752 0 0 1-22.9632-37.9136V650.24c0-13.184 6.144-25.4464 16.384-33.5616a159.744 159.744 0 0 1 10.1632-38.0672c2.1248-5.1968 3.968-9.0624 5.4272-12.2624 3.9168-8.3712 3.9168-8.3712 1.1264-22.3744a220.0832 220.0832 0 0 1-2.8928-18.4832 17.0496 17.0496 0 0 1 10.624-17.92 17.3056 17.3056 0 0 1 20.2752 5.3504c2.8416 3.584 7.3216 7.424 13.2352 11.392 15.8208 10.5728 34.1248 11.648 46.592 10.6496 3.0208-0.256 6.0672-0.3584 9.216-0.3584 66.304 0 104.448 27.5456 113.4848 81.8688 10.4192 8.1152 16.64 20.48 16.64 33.792v14.336c0 16.128-8.96 30.5408-22.9376 37.9136-9.2416 28.928-25.8048 49.9712-49.3568 62.72v5.5808l52.608 26.7008z m5.248 69.6576v-14.6432c0-12.4928-6.9888-23.7312-18.2528-29.312l-54.5792-27.7248a25.2928 25.2928 0 0 1-13.9264-22.6304v-26.0352l8.704-3.7632c21.9648-9.3952 36.224-27.3152 43.6224-54.8096l2.048-7.68 7.6288-2.3296a14.4896 14.4896 0 0 0 10.2912-13.6192V650.24a14.4128 14.4128 0 0 0-7.8592-12.6208l-6.7328-3.5328-0.896-7.5008c-5.1456-43.7504-31.5904-63.232-85.7344-63.232-2.3552 0-4.6336 0.0768-6.8864 0.256-22.1696 1.6896-42.5984-2.4064-59.5968-12.0576 1.2288 11.0592-0.5632 16.4864-5.4528 26.9312-1.3312 2.8672-2.9696 6.3744-4.8896 11.0336-4.5312 11.008-7.5776 23.4496-8.9856 36.9408l-0.8192 7.6032-6.7584 3.584a14.336 14.336 0 0 0-7.8336 12.5952v14.3872c0 6.144 4.224 11.7504 10.2912 13.6192l7.6032 2.3552 2.048 7.68c7.424 27.4944 21.6832 45.4144 43.5968 54.784l8.7552 3.7632v25.9072c0 9.6512-5.632 18.6112-14.336 22.8352l-55.7568 27.3152c-10.0864 5.4528-16.64 16.4864-16.64 28.4928v15.7952c9.0112 5.4784 45.696 13.056 115.6608 13.056 69.9648 0 106.6496-7.5776 115.6864-13.056zM195.7888 607.1552a14.4128 14.4128 0 1 1 0-28.7488h144.6144a14.4128 14.4128 0 1 1 0 28.7488H195.7888z m14.464 215.6032a14.4128 14.4128 0 1 1 0 28.7488h-14.464a14.4128 14.4128 0 1 1 0-28.7488h14.464z m86.784 0a14.4128 14.4128 0 1 1 0 28.7488h-28.928a14.4128 14.4128 0 1 1 0-28.7488h28.928z m72.2944 0a14.4128 14.4128 0 1 1 0 28.7488h-14.464a14.4128 14.4128 0 1 1 0-28.7488h14.464z m86.7584 0a14.4128 14.4128 0 1 1 0 28.7488h-28.928a14.4128 14.4128 0 1 1 0-28.7488h28.928z m47.5648 4.1728a15.2064 15.2064 0 0 1 20.5312 0 15.0528 15.0528 0 0 1 4.1984 10.2144 15.0784 15.0784 0 0 1-4.1984 10.1888 15.2576 15.2576 0 0 1-10.24 4.1728 15.232 15.232 0 0 1-10.2912-4.1728 15.0016 15.0016 0 0 1-4.1984-10.1888c0-3.7376 1.5872-7.5008 4.1984-10.2144z m10.2656-162.304a14.4128 14.4128 0 1 1 0 28.7744H195.7888a14.4128 14.4128 0 1 1 0-28.7488h318.1312z m0 86.272a14.4128 14.4128 0 1 1 0 28.7488H195.7888a14.4128 14.4128 0 1 1 0-28.7488h318.1312z"
     fill="#666"     p-id="1896"></path>
</svg>