<?xml version="1.0" standalone="no"?><!DOCTYPE svg PUBLIC "-//W3C//DTD SVG 1.1//EN"
  "http://www.w3.org/Graphics/SVG/1.1/DTD/svg11.dtd">
<svg t="1509072530306" class="icon" style="color:#fff" viewBox="0 0 1024 1024" version="1.1"
     xmlns="http://www.w3.org/2000/svg"
     p-id="2160"
     width="200" height="200">
  <defs>
    <style type="text/css"></style>
  </defs>
  <path
    d="M654.452329 156.165383a16.501603 16.501603 0 0 0-7.10729 1.607857l-314.531861 149.869458h-160.959209c-37.357475 0-67.751425 30.39395-67.751425 67.751425v306.257925c0 37.357475 30.39395 67.751425 67.751425 67.751425h82.073416c9.126613 0 16.524738-7.399778 16.524738-16.524738s-7.398125-16.524738-16.524738-16.524738h-82.073416c-19.135646 0-34.70195-15.567956-34.701949-34.701949V375.394123c0-19.133994 15.566303-34.70195 34.701949-34.701949h164.695453a16.501603 16.501603 0 0 0 7.107289-1.607857l306.862731-146.215839v671.307562l-281.500563-134.131297c-8.235929-3.926278-18.099545-0.429643-22.025823 7.809591-3.926278 8.239234-0.429643 18.101198 7.809591 22.025823l292.542392 139.392774a16.508213 16.508213 0 0 0 7.108943 1.607857c16.053783 0 29.114936-13.343726 29.114935-29.744528V185.909911c-0.001652-16.400802-13.061153-29.744528-29.116588-29.744528zM790.705403 297.833613c-7.669131-4.945854-17.896291-2.743106-22.843798 4.927677-4.947507 7.669131-2.741454 17.896291 4.927677 22.843798 60.040983 38.732333 95.888097 108.413848 95.888097 186.394086s-35.845461 147.661753-95.888097 186.395738c-7.669131 4.947507-9.875183 15.176319-4.927677 22.843798a16.511518 16.511518 0 0 0 13.902262 7.56833 16.458639 16.458639 0 0 0 8.943188-2.640653c69.519572-44.848139 111.021451-124.910494 111.021452-214.167213-0.001652-89.256719-41.503532-169.319074-111.023104-214.165561z"
    fill="#fff" p-id="2161"></path>
</svg>