<?xml version="1.0" standalone="no"?><!DOCTYPE svg PUBLIC "-//W3C//DTD SVG 1.1//EN"
  "http://www.w3.org/Graphics/SVG/1.1/DTD/svg11.dtd">
<svg t="1509088821253" class="icon" style="" viewBox="0 0 1024 1024" version="1.1" xmlns="http://www.w3.org/2000/svg"
     p-id="4176"
     width="32" height="32">
  <defs>
    <style type="text/css"></style>
  </defs>
  <path
    d="M652.349003 586.963319c51.457975 0 98.892311-16.754592 136.650263-44.901653l81.926918 78.754668c5.78782 5.555529 15.168468 5.555529 20.989033 0 5.786797-5.573949 5.786797-14.613836 0-20.172435l-80.683601-77.528748c39.818891-38.755676 64.403822-92.010577 64.403822-150.790308 0-118.52444-99.972922-214.622102-223.285412-214.622102-123.31556 0-223.319182 96.097662-223.319182 214.622102C429.029822 490.865657 529.033443 586.963319 652.349003 586.963319zM458.681142 372.32382c0-25.140587 5.131881-49.510624 15.236006-72.428589 9.740852-22.164812 23.702841-42.057885 41.517579-59.170634 17.787108-17.098423 38.480406-30.519084 61.526285-39.901779 23.864524-9.691733 49.233308-14.612813 75.389014-14.612813 26.152637 0 51.522444 4.92108 75.354222 14.612813 23.048949 9.382695 43.774993 22.803355 61.559031 39.901779 17.785062 17.11275 31.776727 37.006845 41.517579 59.170634 10.069333 22.917966 15.20019 47.288003 15.20019 72.428589 0 25.139563-5.131881 49.51267-15.20019 72.445986-9.741875 22.164812-23.732517 42.074258-41.517579 59.172681-17.784038 17.0974-38.510082 30.516014-61.559031 39.883359-23.831778 9.710153-49.201585 14.631232-75.354222 14.631232-26.155706 0-51.52449-4.92108-75.389014-14.631232-23.045879-9.366322-43.739177-22.785959-61.526285-39.883359-17.814738-17.0974-31.776727-37.007869-41.517579-59.172681C463.813023 421.836491 458.681142 397.463384 458.681142 372.32382zM143.499763 191.261045 360.278995 191.261045c8.729825 0 15.790638-7.900947 15.790638-17.613146 0-9.748015-7.060813-17.630542-15.790638-17.630542L143.499763 156.017356c-8.697079 0-15.756869 7.882528-15.756869 17.630542C127.742894 183.359075 134.802684 191.261045 143.499763 191.261045zM143.499763 525.977339 360.278995 525.977339c8.729825 0 15.790638-7.885598 15.790638-17.616216 0-9.734712-7.060813-17.636682-15.790638-17.636682L143.499763 490.724441c-8.697079 0-15.756869 7.902994-15.756869 17.636682C127.742894 518.091742 134.802684 525.977339 143.499763 525.977339zM878.639866 825.472458 143.499763 825.472458c-8.697079 0-15.756869 7.881504-15.756869 17.630542 0 9.724479 7.059789 17.60496 15.756869 17.60496l735.140103 0c8.698103 0 15.757892-7.880481 15.757892-17.60496C894.397758 833.353962 887.337969 825.472458 878.639866 825.472458zM143.499763 358.64324l183.301769 0c8.729825 0 15.757892-7.898901 15.757892-17.60496 0-9.745968-7.02909-17.625426-15.757892-17.625426L143.499763 323.412854c-8.697079 0-15.756869 7.878434-15.756869 17.625426C127.742894 350.744339 134.802684 358.64324 143.499763 358.64324zM143.499763 693.359534 594.616114 693.359534c8.725732 0 15.755846-7.887644 15.755846-17.623379s-7.030114-17.622356-15.755846-17.622356L143.499763 658.113799c-8.697079 0-15.756869 7.886621-15.756869 17.622356S134.802684 693.359534 143.499763 693.359534z"
    fill="#666" p-id="4177"></path>
</svg>