<?xml version="1.0" standalone="no"?><!DOCTYPE svg PUBLIC "-//W3C//DTD SVG 1.1//EN"
  "http://www.w3.org/Graphics/SVG/1.1/DTD/svg11.dtd">
<svg t="1510294357586" class="icon" style="" viewBox="0 0 1024 1024" version="1.1" xmlns="http://www.w3.org/2000/svg"
     p-id="4415"
     width="32" height="32">
  <defs>
    <style type="text/css"></style>
  </defs>
  <path
    d="M528.3 902.8c-101.8 0-197.5-39.6-269.5-111.6S147.1 623.5 147.1 521.7c0-101.8 39.6-197.5 111.7-269.5 72-72 167.7-111.6 269.5-111.6 101.8 0 197.5 39.6 269.5 111.6s111.6 167.7 111.6 269.5-39.6 197.5-111.6 269.5-167.7 111.6-269.5 111.6z m0-735.1c-195.2 0-354 158.8-354 354s158.8 354 354 354 354-158.8 354-354-158.8-354-354-354z"
    fill='#fff' p-id="4416"></path>
  <path
    d="M510.6 699.2v-79h-119v-18h119.1V526H391.5v-17.5H503L379.2 330.2H419c55.4 85 89.7 139.6 101.7 162.6l3.1 5.9h15l2.9-6.6c4-9.2 15.3-28.5 33.8-57.5L643 330.2h36L554 508.5h108.6V526H547.7v76.2h114.8v18H547.7v79h-37.1z"
    fill='#fff' p-id="4417"></path>
</svg>